HIERARCHY
ROOT Hips
{
	OFFSET 0.00000 0.00000 0.00000
	CHANNELS 6 Xposition Yposition Zposition Yrotation Zrotation Xrotation 
	JOINT Lumbar
	{
		OFFSET 0 0 0
		CHANNELS 3 Zrotation Xrotation Yrotation
		JOINT Neck
		{
			OFFSET 0.00 0.2701 0.00
			CHANNELS 3 Zrotation Xrotation Yrotation
			End Site
			{
				OFFSET 0.00 0.1379 0.00
			}
		}
		JOINT RightShoulder
		{
			OFFSET 0.0119 0.2289 0.1181
			CHANNELS 3 Zrotation Xrotation Yrotation
			JOINT RightElbow
			{
				OFFSET 0.00 -0.1475 0.00
				CHANNELS 2 Zrotation Yrotation
				JOINT RightWrist
				{
					OFFSET 0.00 -0.1605 0.00
					CHANNELS 2 Zrotation Xrotation
					End Site
					{
						OFFSET 0.0040 -0.1068 0.0006
					}
				}
			}
		}
		JOINT LeftShoulder
		{
			OFFSET 0.0119 0.2289 -0.1181
			CHANNELS 3 Zrotation Xrotation Yrotation
			JOINT LeftElbow
			{
				OFFSET 0.00 -0.1475 0.00
				CHANNELS 2 Zrotation Yrotation
				JOINT LeftWrist
				{
					OFFSET 0.00 -0.1605 0.00
					CHANNELS 2 Zrotation Xrotation
					End Site
					{
						OFFSET 0.0040 -0.1068 -0.0006
					}
				}
			}
		}
	}
	JOINT RightHip
	{
		OFFSET 0.0316 -0.0424 0.0458
		CHANNELS 3 Zrotation Xrotation Yrotation
		JOINT RightKnee
		{
			OFFSET 0.00 -0.2438 0.00
			CHANNELS 1 Zrotation
			JOINT RightAnkle
			{
				OFFSET 0.00 -0.2449 0.00
				CHANNELS 3 Zrotation Xrotation Yrotation
				End Site
				{
					OFFSET 0.1237 -0.0542 0.0051
				}
			}
		}
	}
	JOINT LeftHip
	{
		OFFSET 0.0316 -0.0424 -0.0458
		CHANNELS 3 Zrotation Xrotation Yrotation
		JOINT LeftKnee
		{
			OFFSET 0.00 -0.2438 0.00
			CHANNELS 1 Zrotation
			JOINT LeftAnkle
			{
				OFFSET 0.00 -0.2449 0.00
				CHANNELS 3 Zrotation Xrotation Yrotation
				End Site
				{
					OFFSET 0.1237 -0.0542 -0.0051
				}
			}
		}
	}
}
MOTION
Frames: 25
Frame Time: 0.02
4e-05 0.00057 -0.00243 -2.44215 -20.7546 0.72442 41.96352 3.07256 -3.44126 -12.33753 -6.49707 -0.49581 -26.46768 -9.19104 -12.84477 24.94922 133.94449 16.28974 8.709 -39.55392 14.35576 5.05429 27.47423 -142.45903 27.98637 -6.2346 33.38521 1.85011 -11.26507 -19.60813 -7.44809 -4.07126 -2.83326 39.35867 8.25027 1.51078 -26.78642 -10.7894 5.49472 3.83187
0.00036 0.00049 -0.00259 -2.40591 -20.67543 0.73997 42.06264 2.98285 -3.54032 -12.4319 -6.20134 -0.49653 -26.38799 -9.62401 -11.20517 26.62608 129.20513 15.27545 7.68304 -39.00023 14.50024 4.55903 29.47539 -137.37241 26.365 -5.50208 33.30674 1.84629 -11.17454 -19.70088 -7.45052 -4.09904 -2.84746 39.22542 8.31615 1.90469 -26.81909 -10.69417 5.46212 3.80574
0.00069 0.00041 -0.00276 -2.36977 -20.59657 0.75545 42.16213 2.89329 -3.63961 -12.52624 -5.90596 -0.49725 -26.30615 -10.05685 -9.56776 28.30296 124.47987 14.26404 6.66009 -38.44579 14.64454 4.06375 31.47567 -132.30032 24.74789 -4.77162 33.22851 1.84256 -11.08435 -19.79349 -7.45291 -4.12674 -2.86163 39.0926 8.38189 2.29718 -26.85178 -10.59918 5.42962 3.77968
0.00102 0.00032 -0.00292 -2.33363 -20.51767 0.77094 42.26107 2.80382 -3.73846 -12.62039 -5.61104 -0.49797 -26.22648 -10.48872 -7.93277 29.97547 119.75503 13.25284 5.63727 -37.89357 14.78862 3.56982 33.47149 -127.22916 23.13141 -4.04132 33.1503 1.83876 -10.99411 -19.88598 -7.45533 -4.15444 -2.87579 38.95976 8.44757 2.68986 -26.88434 -10.50423 5.39712 3.75363
0.00134 0.00024 -0.00308 -2.29741 -20.43842 0.78651 42.35934 2.71428 -3.83683 -12.7144 -5.31603 -0.49869 -26.1494 -10.9202 -6.29661 31.64605 115.0163 12.23885 4.61152 -37.34256 14.93279 3.07633 35.46633 -122.14397 21.5109 -3.30904 33.07181 1.83482 -10.9035 -19.97855 -7.45779 -4.18222 -2.89 38.82648 8.51338 3.08402 -26.91691 -10.40906 5.36454 3.72751
0.00167 0.00016 -0.00324 -2.26145 -20.36036 0.80181 42.46136 2.6247 -3.93802 -12.80937 -5.01989 -0.49941 -26.05734 -11.35579 -4.65667 33.33606 110.3196 11.23293 3.5945 -36.78071 15.07737 2.57727 37.47792 -117.09978 19.90098 -2.58243 32.99412 1.83155 -10.81419 -20.07123 -7.46003 -4.20975 -2.90407 38.69463 8.57898 3.47295 -26.9499 -10.31448 5.3322 3.70159
0.00199 8e-05 -0.00341 -2.22494 -20.28005 0.8176 42.55584 2.53523 -4.03355 -12.90254 -4.72626 -0.50013 -25.99665 -11.78285 -3.02632 34.98501 105.54377 10.21196 2.56111 -36.24247 15.22093 2.09032 39.45331 -111.97872 18.27176 -1.84528 32.91502 1.82694 -10.72236 -20.16361 -7.46273 -4.23777 -2.9184 38.56004 8.64491 3.872 -26.9818 -10.21877 5.29941 3.67529
0.00232 0 -0.00357 -2.18909 -20.20169 0.83301 42.65707 2.44577 -4.13407 -12.99694 -4.4305 -0.50084 -25.905 -12.21737 -1.38683 36.67198 100.84045 9.20471 1.54265 -35.68031 15.3655 1.59159 41.46258 -106.92841 16.6599 -1.11773 32.83702 1.82356 -10.63287 -20.25621 -7.46498 -4.26531 -2.93248 38.42798 8.71056 4.26168 -27.01508 -10.12418 5.26704 3.64935
0.00266 -8e-05 -0.00372 -2.15342 -20.12622 0.84766 42.76749 2.35583 -4.24172 -13.09462 -4.13119 -0.50157 -25.78309 -12.66304 0.2639 38.40646 96.22551 8.21439 0.54263 -35.09678 15.51112 1.0804 43.51306 -101.96278 15.07021 -0.40204 32.76113 1.82171 -10.54616 -20.34938 -7.46676 -4.29237 -2.94631 38.29897 8.7758 4.64021 -27.04863 -10.03062 5.23512 3.62382
0.00293 -0.00017 -0.00394 -2.11482 -20.03564 0.86583 42.82788 2.26716 -4.3115 -13.17878 -3.84944 -0.50228 -25.85804 -13.05071 1.85027 39.87087 91.10113 7.1271 -0.56294 -34.6598 15.65014 0.64671 45.32598 -96.50433 13.35576 0.38153 32.67538 1.81114 -10.44322 -20.44019 -7.47147 -4.32251 -2.96175 38.15231 8.84321 5.08382 -27.07637 -9.93011 5.20044 3.5958
0.00334 -0.00023 -0.004 -2.08362 -19.97599 0.8771 42.99195 2.17678 -4.45907 -13.28802 -3.53253 -0.50301 -25.50338 -13.55664 3.57177 41.90226 87.05261 6.24423 -1.44605 -33.89886 15.80343 0.04598 47.6397 -92.08973 11.90294 1.02205 32.60899 1.8189 -10.37467 -20.53535 -7.4699 -4.34596 -2.97369 38.04294 8.90614 5.3895 -27.11905 -9.84494 5.1717 3.57312
0.00413 -0.00023 -0.00367 -2.06322 -20.00951 0.86495 43.45863 2.07402 -4.83854 -13.4956 -3.10259 -0.50382 -24.07318 -14.42351 5.67398 45.52894 85.97916 5.92439 -1.71218 -32.35725 15.99233 -0.99006 51.34243 -90.54257 11.18015 1.26697 32.60749 1.87787 -10.40046 -20.6474 -7.45176 -4.35217 -2.97679 38.03666 8.95615 5.31865 -27.18264 -9.7972 5.15853 3.56459
0.00505 -0.0002 -0.00318 -2.05231 -20.07228 0.84682 44.02576 1.97122 -5.2919 -13.72317 -2.64043 -0.50465 -22.19182 -15.40171 7.90948 49.71659 85.98423 5.80639 -1.75681 -30.46835 16.19532 -2.19849 55.54202 -90.04992 10.71271 1.37006 32.62275 1.9549 -10.46098 -20.76263 -7.42719 -4.35135 -2.9762 38.0679 9.00189 5.10923 -27.26598 -9.76604 5.15144 3.56151
0.0059 -0.00019 -0.00275 -2.04288 -20.11664 0.83416 44.53554 1.8731 -5.70047 -13.92198 -2.20379 -0.50547 -20.45011 -16.30604 10.07834 53.62326 85.4777 5.59855 -1.90622 -28.67 16.39532 -3.34269 59.50892 -89.06383 10.12703 1.53846 32.62333 2.02333 -10.50535 -20.87352 -7.40518 -4.35312 -2.97687 38.08117 9.04993 4.9616 -27.35209 -9.72997 5.14211 3.55628
0.00679 -0.00016 -0.00237 -2.00779 -20.18384 0.80931 45.09626 1.75421 -6.15989 -14.20276 -1.72107 -0.50632 -18.98583 -17.31163 12.2756 57.64565 85.05381 5.39567 -2.03508 -27.16263 16.58466 -4.42622 63.5197 -88.11128 9.57216 1.69785 32.65587 2.09421 -10.5505 -20.99773 -7.38477 -4.3578 -2.9795 38.09748 9.09611 4.81754 -27.38447 -9.68159 5.13074 3.5497
0.00764 -0.00017 -0.00186 -2.02992 -20.20895 0.80913 45.57301 1.67994 -6.52667 -14.31898 -1.32683 -0.50709 -16.83383 -18.1292 14.44217 61.55415 84.72615 5.21461 -2.15765 -24.95726 16.79491 -5.67875 67.53956 -87.37466 8.98726 1.8488 32.62317 2.1633 -10.60331 -21.09356 -7.35941 -4.35428 -2.97693 38.11751 9.14555 4.63462 -27.53871 -9.66436 5.12487 3.54721
0.00837 -0.00031 -0.00099 -2.1943 -20.12304 0.87284 45.8075 1.71686 -6.65636 -13.96311 -1.18438 -0.50762 -12.91991 -18.42859 16.51637 65.05517 84.29522 5.17744 -2.28819 -20.99526 17.09919 -7.33784 71.60842 -86.65206 8.49162 1.95374 32.42942 2.23102 -10.65885 -21.12226 -7.32273 -4.33398 -2.9631 38.1299 9.20117 4.3669 -27.98048 -9.71531 5.13425 3.55467
0.00907 -0.00049 0 -2.41818 -19.99165 0.96281 45.95147 1.80066 -6.68403 -13.44315 -1.13253 -0.50807 -8.32513 -18.52891 18.5495 68.4114 83.94833 5.13011 -2.42518 -16.329 17.41669 -9.16263 75.64158 -86.16084 7.92002 2.06375 32.16545 2.29461 -10.72225 -21.12022 -7.28123 -4.30499 -2.94382 38.14714 9.26071 4.06724 -28.55297 -9.79934 5.14864 3.56602
0.00978 -0.00065 0.00093 -2.62399 -19.87268 1.04423 46.12741 1.87121 -6.73342 -13.00692 -1.03906 -0.50857 -4.024 -18.7027 20.58614 71.80773 83.62499 5.0004 -2.57861 -11.92636 17.70197 -10.92549 79.59599 -85.78827 7.22032 2.21175 31.91795 2.35513 -10.78918 -21.12411 -7.24133 -4.27715 -2.92556 38.16692 9.32129 3.78945 -29.09392 -9.87759 5.15974 3.57563
0.01051 -0.00083 0.00189 -2.7934 -19.78866 1.11039 46.34508 1.90884 -6.88672 -12.53341 -0.94492 -0.50902 0.2285 -18.95502 22.69506 75.34189 83.05747 5.24595 -2.64385 -7.74122 18.09807 -12.64506 83.97022 -84.54753 7.18737 2.19322 31.73477 2.43804 -10.82939 -21.16126 -7.20339 -4.26049 -2.91312 38.16485 9.37077 3.47489 -29.51578 -9.91845 5.17544 3.58547
0.01119 -0.00096 0.0028 -3.05122 -19.62177 1.21561 46.45361 2.0248 -6.80183 -12.09747 -0.87588 -0.50956 4.73534 -18.99141 24.63738 78.53508 83.031 4.70369 -2.89554 -2.95118 18.26672 -14.4829 87.45316 -85.10626 5.78032 2.51389 31.40256 2.47201 -10.92409 -21.12279 -7.16069 -4.21904 -2.88756 38.21288 9.44315 3.23222 -30.21914 -10.04345 5.18253 3.59551
0.01173 -0.00098 0.00354 -3.55063 -19.22805 1.414 46.27787 2.35752 -6.05445 -11.81298 -0.83878 -0.51034 9.7964 -18.51155 26.16691 80.9232 84.2359 2.00127 -3.67502 3.42574 17.80089 -16.68302 88.49633 -91.00889 0.2837 3.86397 30.66076 2.38115 -11.18883 -20.87438 -7.10286 -4.10738 -2.82508 38.36465 9.58787 3.18685 -31.64335 -10.40387 5.1656 3.60644
0.01222 -0.00093 0.00421 -4.13456 -18.75451 1.65223 45.99626 2.76522 -5.07628 -11.57064 -0.82655 -0.51121 15.08174 -17.81557 27.52197 82.95153 86.01487 -1.49375 -4.63976 10.3666 17.10679 -18.98129 88.63871 -98.63326 -6.53784 5.53923 29.77457 2.2395 -11.50357 -20.55255 -7.04102 -3.97187 -2.75001 38.57287 9.75349 3.21691 -33.34934 -10.84526 5.13956 3.61713
0.01275 -0.00091 0.00491 -4.67204 -18.3228 1.87786 45.76543 3.13079 -4.22262 -11.30376 -0.81339 -0.51205 20.25309 -17.19654 28.93262 85.07541 87.6936 -4.63951 -5.51199 16.992 16.51846 -21.18384 89.18288 -105.17513 -12.54585 7.00364 28.96388 2.11471 -11.78165 -20.26996 -6.98313 -3.84979 -2.68199 38.77681 9.90315 3.21955 -34.94418 -11.24263 5.11707 3.62713
0.01319 -0.00093 0.00565 -5.24607 -17.86426 2.08176 45.5186 3.53203 -3.2817 -11.05318 -0.76068 -0.51286 25.50952 -16.65744 30.44449 87.48128 88.72771 -7.75287 -6.42171 23.90092 15.91966 -23.60831 89.75879 -112.97337 -19.44085 8.73099 28.10736 2.01543 -12.12046 -19.9614 -6.91613 -3.71625 -2.60802 38.89017 10.08084 3.19365 -36.47831 -11.67324 5.09744 3.64086
